<svg width="24" height="24" viewBox="0 0 24 24" fill="none" xmlns="http://www.w3.org/2000/svg">
<path d="M18.6638 22.7862C17.3716 24.0389 15.9606 23.8411 14.6024 23.2477C13.1651 22.6411 11.8464 22.6148 10.33 23.2477C8.43114 24.0653 7.42897 23.8279 6.29493 22.7862C-0.140059 16.1534 0.809366 6.05258 8.11466 5.68336C9.89483 5.77567 11.1344 6.65916 12.1761 6.73828C13.7321 6.4218 15.2222 5.51194 16.8837 5.63062C18.8748 5.78885 20.3781 6.58004 21.3671 8.00418C17.2529 10.47 18.2287 15.8897 22 17.4061C21.2484 19.3841 20.2726 21.3489 18.6506 22.7994L18.6638 22.7862ZM12.0442 5.60424C11.8464 2.66366 14.2332 0.237356 16.976 0C17.3584 3.40211 13.8903 5.9339 12.0442 5.60424Z" fill="white"/>
</svg>
