<svg width="24" height="24" viewBox="0 0 24 24" fill="none" xmlns="http://www.w3.org/2000/svg">
<path fill-rule="evenodd" clip-rule="evenodd" d="M9.37851 12.6859C9.23451 12.8169 9.05351 12.8819 8.87351 12.8819C8.66951 12.8819 8.46651 12.7989 8.31851 12.6369L6.49551 10.6369C6.21651 10.3309 6.23851 9.85588 6.54451 9.57788C6.84951 9.29688 7.32451 9.31987 7.60451 9.62586L9.42751 11.6259C9.70651 11.9329 9.68451 12.4069 9.37851 12.6859ZM21.0715 8.82088L18.1305 4.50188C17.6735 3.82588 16.9135 3.42188 16.0965 3.42188H7.90951C7.09351 3.42188 6.33351 3.82586 5.87751 4.49986L2.92651 8.82088C2.28551 9.76088 2.37251 11.0139 3.13951 11.8689L10.4455 19.8889C10.8425 20.3259 11.4085 20.5769 11.9985 20.5769C12.5885 20.5769 13.1545 20.3259 13.5505 19.8879L20.8575 11.8589C21.6275 11.0149 21.7155 9.76588 21.0715 8.82088Z" fill="white"/>
</svg>
