<svg width="24" height="24" viewBox="0 0 24 24" fill="none" xmlns="http://www.w3.org/2000/svg">
<path d="M21.8227 10.3633C21.9417 11.0481 22.001 11.7418 22 12.4368C22 15.5406 20.8906 18.1649 18.9599 19.9412H18.9625C17.2742 21.5008 14.9533 22.4036 12.2015 22.4036C9.49587 22.4036 6.90109 21.3288 4.98794 19.4157C3.0748 17.5025 2 14.9077 2 12.2021C2 9.49655 3.0748 6.90176 4.98794 4.98862C6.90109 3.07547 9.49587 2.00067 12.2015 2.00067C14.7339 1.97101 17.1796 2.92242 19.0263 4.65561L16.1137 7.56813C15.0609 6.56453 13.6558 6.01494 12.2015 6.03791C9.54016 6.03791 7.27926 7.83336 6.47335 10.2511C6.04604 11.518 6.04604 12.8901 6.47335 14.157H6.47717C7.28691 16.5709 9.54399 18.3664 12.2053 18.3664C13.5799 18.3664 14.7608 18.0144 15.6764 17.3921H15.6725C16.2042 17.0399 16.6589 16.5837 17.0094 16.0509C17.3598 15.5181 17.5987 14.9198 17.7115 14.2922H12.2015V10.3646L21.8227 10.3633Z" fill="white"/>
</svg>
