<svg width="24" height="24" viewBox="0 0 24 24" fill="none" xmlns="http://www.w3.org/2000/svg">
<path d="M7.30482 9.33768V7.34452L7.31166 7.10331C7.44778 4.63038 9.50168 2.6727 12.006 2.68241L12.005 2.68339C14.055 2.68364 15.7953 4.00037 16.4298 5.8328C16.5202 6.09374 16.3822 6.37819 16.1212 6.46854C15.8603 6.55886 15.5759 6.42081 15.4855 6.15995C14.986 4.71744 13.6149 3.68241 12.004 3.68241H12.0021C9.96885 3.67454 8.31373 5.31543 8.30482 7.34842V9.33768C8.30478 9.61379 8.08094 9.83768 7.80482 9.83768C7.5287 9.83768 7.30486 9.61379 7.30482 9.33768Z" fill="white"/>
<path d="M18.4912 12.7572C18.4911 11.1083 17.1546 9.77206 15.5068 9.7718H8.48438C6.83653 9.77196 5.50012 11.1082 5.5 12.7572V16.6976L5.50391 16.8519C5.58405 18.4293 6.88808 19.6838 8.48438 19.6839H15.5068C17.1547 19.6837 18.4912 18.3466 18.4912 16.6976V12.7572ZM19.4912 16.6976C19.4912 18.8987 17.7071 20.6837 15.5068 20.6839H8.48438C6.35266 20.6838 4.61146 19.0086 4.50488 16.9027L4.5 16.6976V12.7572C4.50012 10.5561 6.28407 8.77196 8.48438 8.7718H15.5068C17.7071 8.77206 19.4911 10.5562 19.4912 12.7572V16.6976Z" fill="white"/>
<path d="M11.4957 15.7489V13.7069C11.4957 13.4307 11.7195 13.2069 11.9957 13.2069C12.2718 13.2069 12.4957 13.4307 12.4957 13.7069V15.7489C12.4956 16.025 12.2718 16.2489 11.9957 16.2489C11.7196 16.2489 11.4957 16.025 11.4957 15.7489Z" fill="white"/>
</svg>
