<svg width="24" height="24" viewBox="0 0 24 24" fill="none" xmlns="http://www.w3.org/2000/svg">
<path d="M16.7168 8.72066C16.9319 8.54758 17.2468 8.58177 17.4199 8.79683C17.593 9.01192 17.5588 9.32681 17.3438 9.49996L13.4238 12.6552L13.419 12.6601C12.496 13.3835 11.2012 13.3836 10.2783 12.6601L10.2754 12.6572L6.32229 9.50093C6.10654 9.3287 6.07108 9.01459 6.24318 8.79878C6.41541 8.58303 6.72953 8.54757 6.94533 8.71968L10.8955 11.873L11.0029 11.9502C11.5531 12.3108 12.2761 12.2849 12.8018 11.873L16.7168 8.72066Z" fill="white"/>
<path d="M16.1611 3.5L16.4199 3.50977C17.7112 3.59065 18.9267 4.16526 19.8125 5.12109C20.7506 6.13338 21.2373 7.48532 21.1641 8.86523V14.8643C21.2371 16.2439 20.7504 17.5953 19.8125 18.6074C18.8677 19.6269 17.5481 20.213 16.1611 20.2285H7.49219C4.48168 20.2285 2.50019 17.7681 2.5 14.8643V8.86523C2.5 5.96119 4.48153 3.5 7.49219 3.5H16.1611ZM3.5 14.8643C3.50019 17.3242 5.13647 19.2285 7.49219 19.2285H16.1494C17.2609 19.216 18.3202 18.7466 19.0791 17.9277C19.8379 17.1088 20.2307 16.0123 20.165 14.8936C20.1645 14.8839 20.1641 14.8739 20.1641 14.8643V8.86523C20.1641 8.85553 20.1645 8.84563 20.165 8.83594C20.2308 7.71703 19.8381 6.61979 19.0791 5.80078C18.3676 5.03307 17.3924 4.57266 16.3574 4.50781L16.1494 4.5H7.49219C5.13634 4.5 3.5 6.40505 3.5 8.86523V14.8643Z" fill="white"/>
</svg>
