<svg width="24" height="24" viewBox="0 0 24 24" fill="none" xmlns="http://www.w3.org/2000/svg">
<path d="M17.6357 18.6071C17.6357 17.7826 17.0628 16.9003 15.9824 16.197C14.9158 15.5027 13.4323 15.0418 11.8184 15.0417C10.1958 15.0417 8.71253 15.5073 7.64844 16.2058C6.57127 16.9129 6.00021 17.7994 6 18.6257C6 19.0291 6.13325 19.3392 6.37305 19.5954C6.62383 19.8633 7.01165 20.0934 7.54395 20.2771C8.61506 20.6467 10.1255 20.78 11.8184 20.78C13.5193 20.78 15.0286 20.642 16.0967 20.2683C16.6274 20.0825 17.0138 19.8501 17.2637 19.5808C17.5029 19.3228 17.6357 19.0113 17.6357 18.6071ZM18.6357 18.6071C18.6357 19.2644 18.4071 19.8182 17.9971 20.2605C17.5977 20.6911 17.0469 20.9946 16.4268 21.2116C15.1926 21.6435 13.5432 21.78 11.8184 21.78C10.1034 21.78 8.45371 21.6489 7.21777 21.2224C6.59681 21.0081 6.0439 20.7068 5.64258 20.278C5.23045 19.8376 5 19.284 5 18.6257C5.0002 17.3287 5.87494 16.1738 7.09961 15.3698C8.33795 14.557 10.0147 14.0417 11.8184 14.0417C13.612 14.0418 15.2871 14.5519 16.5273 15.3591C17.7539 16.1575 18.6357 17.3079 18.6357 18.6071Z" fill="white"/>
<path d="M15.3601 7.5498C15.3601 5.58946 13.7714 4.00002 11.8113 4C9.85111 4 8.26147 5.58958 8.26147 7.5498V7.55176C8.255 9.5042 9.83168 11.0917 11.7839 11.0986H11.8113C13.7715 11.0986 15.3601 9.51001 15.3601 7.5498ZM16.3601 7.5498C16.3601 10.0623 14.3238 12.0986 11.8113 12.0986H11.781C9.27604 12.0901 7.25299 10.0527 7.26147 7.54785C7.26253 5.03624 9.29946 3 11.8113 3C14.324 3.00002 16.3601 5.03745 16.3601 7.5498Z" fill="white"/>
</svg>
