<svg width="24" height="24" viewBox="0 0 24 24" fill="none" xmlns="http://www.w3.org/2000/svg">
<path fill-rule="evenodd" clip-rule="evenodd" d="M5.47007 5.46991C5.6107 5.32946 5.80132 5.25057 6.00007 5.25057C6.19882 5.25057 6.38945 5.32946 6.53007 5.46991L12.0001 10.9399L17.4701 5.46991C17.5387 5.39622 17.6215 5.33712 17.7135 5.29613C17.8055 5.25514 17.9048 5.23309 18.0056 5.23132C18.1063 5.22954 18.2063 5.24807 18.2997 5.28579C18.3931 5.32351 18.4779 5.37965 18.5491 5.45087C18.6203 5.52209 18.6765 5.60692 18.7142 5.70031C18.7519 5.7937 18.7704 5.89373 18.7687 5.99443C18.7669 6.09513 18.7448 6.19445 18.7039 6.28645C18.6629 6.37845 18.6038 6.46125 18.5301 6.52991L13.0601 11.9999L18.5301 17.4699C18.6038 17.5386 18.6629 17.6214 18.7039 17.7134C18.7448 17.8054 18.7669 17.9047 18.7687 18.0054C18.7704 18.1061 18.7519 18.2061 18.7142 18.2995C18.6765 18.3929 18.6203 18.4777 18.5491 18.5489C18.4779 18.6202 18.3931 18.6763 18.2997 18.714C18.2063 18.7518 18.1063 18.7703 18.0056 18.7685C17.9048 18.7667 17.8055 18.7447 17.7135 18.7037C17.6215 18.6627 17.5387 18.6036 17.4701 18.5299L12.0001 13.0599L6.53007 18.5299C6.3879 18.6624 6.19985 18.7345 6.00555 18.7311C5.81125 18.7277 5.62586 18.6489 5.48845 18.5115C5.35104 18.3741 5.27233 18.1887 5.2689 17.9944C5.26547 17.8001 5.33759 17.6121 5.47007 17.4699L10.9401 11.9999L5.47007 6.52991C5.32962 6.38928 5.25073 6.19866 5.25073 5.99991C5.25073 5.80116 5.32962 5.61053 5.47007 5.46991Z" fill="white"/>
</svg>
