<svg width="76" height="76" viewBox="0 0 76 76" fill="none" xmlns="http://www.w3.org/2000/svg">
<rect width="76" height="76" rx="24" fill="black" fill-opacity="0.25"/>
<path fill-rule="evenodd" clip-rule="evenodd" d="M29.2718 26.5714C29.2718 24.2981 30.1914 22.118 31.8282 20.5105C33.4651 18.9031 35.6851 18 38 18C40.3149 18 42.5349 18.9031 44.1718 20.5105C45.8086 22.118 46.7282 24.2981 46.7282 26.5714C46.7282 28.8447 45.8086 31.0249 44.1718 32.6323C42.5349 34.2398 40.3149 35.1428 38 35.1428C35.6851 35.1428 33.4651 34.2398 31.8282 32.6323C30.1914 31.0249 29.2718 28.8447 29.2718 26.5714ZM22.0002 53.4381C22.0656 49.3133 23.7801 45.3791 26.7735 42.4849C29.7669 39.5907 33.7992 37.9685 38 37.9685C42.2008 37.9685 46.2331 39.5907 49.2265 42.4849C52.2199 45.3791 53.9344 49.3133 53.9998 53.4381C54.0048 53.7158 53.9273 53.9889 53.7768 54.224C53.6262 54.4591 53.4092 54.646 53.1522 54.7619C48.3985 56.9023 43.2295 58.0069 38 58C32.5963 58 27.4621 56.8419 22.8478 54.7619C22.5908 54.646 22.3738 54.4591 22.2232 54.224C22.0727 53.9889 21.9952 53.7158 22.0002 53.4381Z" fill="url(#paint0_linear_14007_878)"/>
<defs>
<linearGradient id="paint0_linear_14007_878" x1="38" y1="18" x2="38" y2="58" gradientUnits="userSpaceOnUse">
<stop stop-color="white"/>
<stop offset="1" stop-color="#F8C6C6" stop-opacity="0.5"/>
</linearGradient>
</defs>
</svg>
